<svg width="28" height="28" viewBox="0 0 28 28" fill="none" xmlns="http://www.w3.org/2000/svg">
<path d="M28 1.414L26.586 0L0 26.586L1.414 28L3.414 26H24C24.5302 25.9992 25.0384 25.7882 25.4133 25.4133C25.7882 25.0384 25.9992 24.5302 26 24V3.414L28 1.414ZM24 24H5.414L13.207 16.207L15.586 18.586C15.9611 18.9609 16.4697 19.1716 17 19.1716C17.5303 19.1716 18.0389 18.9609 18.414 18.586L20 17L24 20.997V24ZM24 18.168L21.414 15.582C21.0389 15.2071 20.5303 14.9964 20 14.9964C19.4697 14.9964 18.9611 15.2071 18.586 15.582L17 17.168L14.623 14.791L24 5.414V18.168ZM4 20V17L9 12.003L10.373 13.377L11.789 11.961L10.414 10.586C10.0389 10.2111 9.53033 10.0004 9 10.0004C8.46967 10.0004 7.96106 10.2111 7.586 10.586L4 14.172V4H20V2H4C3.46973 2.00053 2.96133 2.21141 2.58637 2.58637C2.21141 2.96133 2.00053 3.46973 2 4V20H4Z" fill="black"/>
</svg>
